<svg viewBox="0 0 500 500" xmlns="http://www.w3.org/2000/svg">
  <defs></defs>
  <path style="stroke: rgb(0, 0, 0); fill: rgb(5, 147, 255);" d="M 335.956 62.639 C 295.711 35.809 248.362 12.857 202.372 38.384 C 187.922 46.405 174.036 56.598 161.658 67.491 C 145.938 81.326 118.25 95.429 119.288 119.866 C 120.742 154.096 158.81 168.662 186.736 174.975 C 235.016 185.888 278.616 199.386 315.207 234.375 C 324.377 243.144 340.616 257.255 342.574 270.96 C 345.917 294.357 315.337 314.317 300.041 325.243 C 289.48 332.787 278.174 338.294 265.932 342.8 C 253.766 347.277 241.811 351.115 228.828 352.197 C 185.476 355.809 164.42 304.602 140.144 280.329"></path>
</svg>
